<?xml version="1.0" standalone="no"?>
<!DOCTYPE svg PUBLIC "-//W3C//DTD SVG 20010904//EN"
 "http://www.w3.org/TR/2001/REC-SVG-20010904/DTD/svg10.dtd">
<svg version="1.0" xmlns="http://www.w3.org/2000/svg"
 width="6048.000000pt" height="8064.000000pt" viewBox="0 0 6048.000000 8064.000000"
 preserveAspectRatio="xMidYMid meet">

<g transform="translate(0.000000,8064.000000) scale(0.100000,-0.100000)"
fill="#000000" stroke="none">
<path d="M0 40320 l0 -40320 30240 0 30240 0 0 40320 0 40320 -30240 0 -30240
0 0 -40320z m11268 13580 c496 -36 826 -160 710 -267 -73 -67 -198 -87 -503
-80 -254 5 -426 24 -580 64 -184 48 -248 82 -279 148 -10 19 -14 44 -11 55 23
71 307 105 663 80z m20068 -5838 c6 -4 13 -15 17 -24 3 -10 14 -18 24 -18 10
0 31 -7 47 -15 15 -8 41 -15 58 -15 32 0 88 -25 88 -39 0 -5 -24 -12 -52 -16
-124 -17 -305 -92 -370 -153 -41 -38 -34 -48 10 -14 44 35 126 73 197 91 28 7
56 15 63 17 34 10 -3 -15 -45 -31 -26 -10 -59 -26 -73 -35 -14 -9 -34 -20 -44
-24 -10 -3 -16 -9 -13 -12 3 -4 24 1 45 9 22 9 42 14 45 11 3 -3 54 -7 114 -9
75 -2 120 -8 148 -20 161 -71 185 -91 282 -238 60 -92 153 -275 153 -302 0 -7
11 -37 24 -68 32 -72 76 -203 76 -226 0 -10 7 -38 15 -62 17 -48 20 -230 6
-416 -1 -6 -13 -13 -28 -15 -20 -2 -29 -9 -31 -25 -4 -25 7 -30 26 -11 9 9 12
9 12 -1 0 -7 -25 -37 -56 -66 -39 -38 -77 -63 -132 -85 -136 -57 -147 -62
-135 -67 24 -9 191 56 276 106 21 14 37 18 37 11 0 -29 -44 -103 -71 -119 -32
-20 -69 -71 -69 -95 0 -8 -20 -26 -45 -40 -32 -19 -51 -40 -64 -70 -11 -23
-27 -49 -36 -56 -28 -23 -38 -50 -24 -66 19 -24 -7 -42 -69 -49 -107 -12 -111
-13 -114 -48 -3 -31 -5 -32 -73 -45 -155 -30 -387 2 -567 77 -403 169 -922
690 -1148 1151 -44 89 -107 279 -120 362 -34 208 26 442 118 464 15 4 48 17
74 30 26 13 60 24 76 24 15 0 37 7 48 15 10 8 29 15 41 15 12 0 42 9 65 19 24
11 70 25 103 31 33 7 78 18 100 26 23 8 54 14 70 14 17 0 45 4 62 9 18 5 63
12 100 16 37 3 82 8 98 11 17 3 44 7 60 9 74 10 125 23 139 34 9 8 55 15 112
18 53 2 107 8 120 13 15 6 34 6 50 0 17 -7 32 -6 45 1 14 7 30 7 56 -2 31 -10
37 -9 45 5 10 18 17 19 34 8z m-2924 -828 c-2 -10 -17 -38 -33 -62 -65 -97
-119 -236 -155 -402 -29 -129 -26 -455 4 -600 58 -282 161 -527 308 -735 58
-83 78 -119 79 -145 1 -19 4 -42 7 -50 4 -8 9 -33 13 -55 3 -22 18 -77 32
-123 31 -101 28 -165 -13 -265 -24 -58 -35 -73 -71 -94 -40 -23 -43 -28 -43
-67 0 -34 -6 -48 -30 -71 -16 -15 -35 -44 -41 -64 -11 -34 -41 -85 -134 -235
-58 -93 -99 -149 -189 -260 -45 -54 -103 -128 -129 -164 -27 -35 -101 -128
-166 -206 -151 -182 -197 -242 -313 -406 -118 -167 -198 -294 -214 -340 -13
-38 -32 -47 -102 -49 -67 -2 -191 -30 -241 -56 -72 -37 -177 -156 -286 -325
-26 -41 -63 -98 -81 -127 -36 -56 -52 -103 -36 -103 17 0 187 -116 279 -190
341 -279 898 -855 1018 -1056 l25 -41 -20 -59 c-10 -32 -31 -98 -46 -146 -21
-67 -32 -89 -51 -97 -42 -19 -62 -13 -77 24 -12 27 -21 35 -40 35 -29 0 -34
21 -11 40 15 13 21 80 8 80 -9 0 -129 -36 -191 -57 -53 -18 -53 -40 1 -66 l37
-19 -24 -29 c-20 -23 -23 -34 -16 -58 4 -15 5 -32 1 -37 -3 -5 -41 -26 -83
-47 -48 -23 -104 -62 -148 -102 -38 -36 -72 -65 -74 -65 -2 0 -1 12 2 27 4 21
2 25 -11 20 -9 -3 -35 -11 -59 -17 -65 -18 -127 -54 -188 -109 -60 -55 -92
-68 -295 -122 -138 -36 -185 -64 -251 -147 -147 -187 -215 -505 -169 -792 44
-274 169 -563 314 -723 24 -26 24 -29 9 -55 -8 -15 -13 -33 -11 -40 6 -15 -71
-51 -108 -52 -15 0 -46 -7 -70 -15 -24 -9 -53 -14 -63 -11 -11 3 -49 -1 -85
-8 -36 -8 -97 -17 -136 -21 -38 -4 -78 -11 -88 -17 -33 -17 -194 -27 -235 -14
-13 4 -29 3 -36 -3 -7 -6 -71 -13 -145 -15 -100 -3 -138 -8 -157 -21 -24 -15
-26 -15 -81 27 -85 64 -182 188 -353 448 -9 14 -43 79 -76 145 -127 254 -184
448 -184 627 0 61 5 129 12 151 11 35 10 41 -6 53 -18 12 -17 14 8 25 15 7 25
16 24 20 -2 4 -39 45 -82 91 -221 231 -436 596 -515 873 -37 129 -51 294 -31
366 11 38 25 47 110 76 147 50 333 163 458 280 105 97 312 360 500 633 28 41
67 91 87 110 20 19 57 73 83 120 30 56 82 126 152 205 59 66 124 143 144 170
49 65 140 175 194 236 85 94 474 679 501 753 2 6 12 23 22 37 27 38 240 468
282 569 20 47 66 162 102 255 37 94 98 226 136 295 142 255 180 342 190 432 5
46 12 99 15 119 17 108 -30 400 -80 494 -10 20 -16 56 -16 105 0 67 9 109 51
246 5 17 9 38 9 47 0 10 16 49 35 87 19 38 35 76 35 85 0 8 3 15 8 15 10 0 33
37 37 61 2 10 29 49 59 86 103 126 112 138 130 174 10 20 32 44 47 55 16 10
29 24 29 29 0 6 18 22 41 35 22 14 60 43 83 65 52 49 135 101 258 159 106 51
137 64 296 127 13 5 33 9 45 9 12 0 31 7 41 15 11 8 40 15 65 15 25 1 69 7 96
15 59 16 71 14 67 -11z m1072 -2310 c3 -8 2 -12 -4 -9 -6 3 -10 10 -10 16 0
14 7 11 14 -7z m-174 -38 c0 -2 -7 -7 -16 -10 -8 -3 -12 -2 -9 4 6 10 25 14
25 6z m-96 -51 c-10 -8 -23 -15 -28 -15 -6 0 -1 7 10 15 10 8 23 15 28 15 6 0
1 -7 -10 -15z m-139 -65 c-3 -5 -14 -10 -23 -10 -15 0 -15 2 -2 10 20 13 33
13 25 0z m-351 -157 c-10 -7 -22 -13 -27 -13 -5 0 -4 6 2 13 6 8 18 14 27 14
15 0 14 -2 -2 -14z m1386 -914 c0 -6 -4 -7 -10 -4 -5 3 -10 11 -10 16 0 6 5 7
10 4 6 -3 10 -11 10 -16z m40 -80 c0 -6 -4 -7 -10 -4 -5 3 -10 11 -10 16 0 6
5 7 10 4 6 -3 10 -11 10 -16z m40 -80 c0 -6 -4 -7 -10 -4 -5 3 -10 11 -10 16
0 6 5 7 10 4 6 -3 10 -11 10 -16z m-2376 -106 c-39 -52 -74 -89 -74 -80 0 8
38 62 74 104 31 37 31 17 0 -24z m2416 26 c0 -6 -4 -7 -10 -4 -5 3 -10 11 -10
16 0 6 5 7 10 4 6 -3 10 -11 10 -16z m2180 -621 c22 -74 21 -128 -4 -158 -7
-8 -25 -37 -39 -64 -33 -59 -29 -67 55 -91 35 -10 71 -25 80 -33 24 -20 63
-151 49 -165 -7 -7 -16 -5 -32 9 -21 19 -22 19 -98 -23 -42 -22 -75 -47 -73
-53 5 -22 -8 -47 -31 -57 -33 -15 -44 -7 -62 48 -9 27 -21 51 -26 54 -5 4 -9
26 -9 51 0 39 3 46 27 55 23 9 30 7 44 -10 21 -26 23 -26 86 1 50 22 68 38 41
38 -7 0 -59 12 -115 26 -71 19 -103 32 -103 42 0 8 13 31 29 51 46 58 103 152
97 159 -3 3 -29 -5 -56 -18 -42 -20 -50 -28 -50 -51 0 -33 -28 -52 -64 -43
-20 5 -25 14 -31 56 -4 28 -14 67 -22 86 -14 34 -14 36 9 54 30 23 44 23 62
-3 15 -22 27 -21 96 7 76 32 85 39 88 72 5 55 28 37 52 -40z m116 -610 c70
-73 96 -196 60 -282 -15 -35 -49 -62 -66 -51 -13 8 -50 80 -50 96 0 7 -9 31
-19 53 -10 23 -22 54 -26 71 -5 23 -8 26 -15 14 -13 -22 7 -96 35 -133 31 -40
34 -96 6 -96 -10 0 -29 11 -43 24 -14 12 -33 26 -42 29 -9 4 -16 13 -16 20 0
8 -7 29 -16 47 -33 65 3 211 58 237 13 7 39 12 58 12 30 1 43 -7 76 -41z m143
-334 c12 -25 18 -51 15 -56 -4 -5 6 -31 20 -58 25 -45 25 -49 10 -65 -16 -16
-20 -14 -54 24 -43 46 -44 47 -94 26 -30 -13 -36 -20 -36 -45 0 -23 -5 -31
-24 -36 -44 -11 -58 -1 -73 51 -23 80 -22 107 7 122 22 11 27 10 42 -7 13 -16
21 -19 35 -11 10 6 35 17 56 26 23 9 37 20 34 27 -6 18 11 48 28 48 8 0 23
-21 34 -46z m58 -250 c39 -29 80 -104 89 -164 4 -24 17 -52 30 -66 40 -39 33
-49 -63 -99 -68 -34 -72 -39 -67 -63 12 -48 20 -51 75 -34 41 13 51 21 57 46
5 20 15 32 29 34 16 2 24 -7 40 -46 13 -30 17 -55 12 -63 -4 -8 -31 -26 -58
-39 -28 -13 -51 -27 -51 -32 0 -4 -7 -8 -15 -8 -9 0 -15 -9 -15 -22 0 -32 -11
-45 -42 -53 -30 -8 -77 20 -78 45 0 9 -7 26 -16 38 -18 26 -32 71 -39 126 -3
21 -10 47 -16 58 -6 11 -8 29 -6 40 4 12 -3 28 -16 41 -24 24 -23 22 -37 96
-6 34 -6 60 0 72 6 10 10 27 10 37 0 11 16 34 35 51 46 40 94 42 142 5z m253
-410 c0 -14 -6 -24 -14 -24 -18 0 -29 42 -14 51 18 11 28 1 28 -27z m-492
-236 c-2 -7 5 -12 15 -10 9 2 17 -2 17 -7 0 -19 -18 -20 -39 -2 -20 18 -19 22
7 30 1 1 1 -5 0 -11z m-25 -41 c3 -8 1 -20 -4 -28 -6 -10 -9 -7 -9 14 0 29 5
35 13 14z m113 -52 c27 11 64 11 62 0 -2 -6 -9 -9 -15 -9 -7 1 -10 -3 -7 -8 4
-6 0 -14 -7 -19 -12 -8 -11 -11 4 -20 9 -5 17 -15 17 -20 0 -6 -6 -7 -12 -2
-7 4 -22 8 -33 8 -11 0 -20 5 -20 12 0 22 -10 20 -33 -8 -19 -23 -20 -29 -8
-29 9 0 16 -7 16 -16 0 -8 4 -13 9 -10 5 4 20 2 34 -3 18 -7 28 -5 41 7 10 10
16 12 16 4 0 -7 -6 -12 -12 -12 -10 0 -9 -3 1 -9 19 -12 5 -31 -24 -31 -13 0
-25 -4 -27 -9 -1 -5 -19 -11 -38 -13 -19 -1 -38 -7 -42 -13 -4 -6 -8 -2 -8 8
0 9 3 17 8 17 11 0 13 68 2 75 -15 9 -12 25 5 25 17 0 20 16 6 24 -5 4 -5 18
2 35 9 24 14 27 27 18 10 -6 26 -7 36 -2z m74 -45 c0 -5 -5 -10 -11 -10 -5 0
-7 5 -4 10 3 6 8 10 11 10 2 0 4 -4 4 -10z m54 -66 c10 -25 -1 -29 -14 -5 -6
12 -7 21 -1 21 5 0 12 -7 15 -16z m16 -62 c0 -2 -4 0 -10 3 -5 3 -10 1 -10 -4
0 -6 6 -11 13 -11 8 0 7 -3 -3 -10 -12 -7 -12 -12 4 -29 11 -12 14 -21 8 -21
-18 0 -14 -27 4 -34 11 -4 15 -14 11 -31 -2 -14 0 -28 5 -31 5 -3 9 -18 8 -32
-1 -15 -1 -36 -1 -47 2 -19 2 -19 15 -2 14 19 36 23 36 7 0 -5 7 -10 16 -10
11 0 15 -6 11 -20 -3 -13 -1 -18 6 -13 6 4 8 0 4 -10 -4 -10 5 -28 24 -48 29
-31 37 -45 20 -34 -5 3 -12 1 -15 -4 -4 -5 2 -8 11 -7 11 2 18 12 17 24 0 12
3 19 8 16 4 -3 8 -11 8 -18 0 -9 9 -12 25 -8 14 2 25 1 24 -4 -2 -5 3 -29 10
-54 7 -25 13 -55 13 -67 0 -13 7 -28 14 -34 8 -6 11 -15 8 -20 -3 -5 0 -9 5
-9 6 0 11 -7 11 -15 0 -7 7 -18 16 -23 9 -5 14 -15 12 -23 -3 -8 1 -26 8 -40
13 -26 8 -43 -15 -51 -10 -3 -6 -13 18 -37 17 -17 36 -29 41 -26 6 3 10 -1 10
-9 0 -8 -4 -17 -9 -20 -11 -7 -3 -46 9 -46 5 0 10 5 12 11 6 18 55 -7 75 -38
10 -15 24 -33 32 -39 16 -13 7 -34 -15 -34 -21 0 -17 -28 5 -35 11 -3 18 -12
15 -19 -3 -7 12 -24 34 -38 30 -21 42 -37 52 -75 8 -26 22 -55 33 -63 15 -13
17 -20 8 -43 -16 -41 3 -122 39 -167 27 -35 29 -41 21 -84 -4 -25 -6 -48 -3
-51 3 -3 -2 -5 -11 -5 -10 0 -17 -8 -17 -18 0 -9 -18 -28 -40 -42 -22 -14 -40
-29 -40 -33 0 -14 -55 -62 -75 -65 -16 -3 -70 -57 -88 -88 -4 -8 -17 -14 -27
-14 -10 0 -25 -8 -32 -18 -7 -10 -35 -24 -63 -31 -27 -7 -55 -17 -62 -23 -7
-5 -21 -7 -31 -4 -10 4 -31 0 -47 -8 -17 -9 -36 -12 -49 -7 -12 5 -33 3 -51
-5 -16 -7 -25 -14 -20 -14 6 0 -3 -7 -20 -14 -17 -8 -34 -10 -40 -5 -5 5 -17
9 -27 9 -21 0 -22 9 -6 44 7 17 8 33 2 47 -6 12 -7 48 -3 83 4 33 4 65 -1 71
-4 5 -11 25 -15 44 -4 19 -16 43 -26 55 -11 11 -19 30 -19 42 0 13 -4 26 -10
29 -5 3 -10 13 -10 21 0 8 4 13 9 10 4 -3 1 10 -7 29 -9 19 -22 35 -29 35 -18
0 -16 28 2 46 19 19 19 67 1 102 -12 23 -12 30 0 46 8 12 10 24 5 30 -5 6 -12
32 -16 59 -6 42 -5 47 11 47 16 0 17 2 4 10 -8 5 -27 10 -42 10 -27 0 -33 19
-11 41 6 6 9 17 6 25 -2 7 7 28 21 47 21 27 25 40 18 58 -5 13 -8 66 -7 118 1
76 5 95 18 103 21 11 22 28 2 28 -19 0 -20 29 -1 36 8 3 17 12 20 19 3 9 0 12
-10 8 -19 -7 -19 33 0 44 18 10 16 44 -4 60 -12 10 -13 16 -3 32 10 15 10 20
0 24 -8 3 -6 10 6 25 19 21 15 48 -5 36 -7 -5 -9 -1 -5 9 4 11 2 14 -8 11 -9
-4 -13 1 -12 15 1 12 5 21 10 21 4 0 17 8 28 19 20 18 20 19 -16 25 l-37 7 3
80 c3 61 0 82 -11 89 -18 11 -13 16 30 27 25 7 34 15 32 26 -2 10 4 17 13 17
8 0 14 -6 13 -12 -2 -7 7 -14 20 -16 24 -4 32 22 10 32 -9 4 -8 5 2 5 32 -2
39 1 33 17 -5 14 -3 13 15 -2 12 -10 22 -20 22 -22z m64 -157 c4 -13 2 -14
-14 -5 -23 13 -26 20 -6 20 8 0 16 -7 20 -15z m86 -95 c0 -5 -5 -10 -11 -10
-5 0 -7 5 -4 10 3 6 8 10 11 10 2 0 4 -4 4 -10z m568 -196 c-10 -10 -28 6 -28
24 0 15 1 15 17 -1 9 -9 14 -19 11 -23z m701 -1123 c43 -21 104 -44 135 -51
31 -6 96 -31 144 -56 48 -24 95 -44 105 -44 23 0 176 -156 233 -237 23 -32 54
-89 69 -128 15 -38 31 -74 36 -79 5 -6 9 -18 9 -28 0 -10 9 -35 20 -55 11 -21
20 -47 20 -58 0 -11 7 -29 15 -39 8 -11 15 -32 15 -46 0 -14 5 -31 12 -38 7
-7 11 -27 10 -45 -1 -18 4 -41 11 -52 14 -18 12 -55 -3 -55 -11 0 -36 41 -43
70 -27 121 -50 158 -63 106 -5 -20 -1 -31 17 -47 14 -11 19 -22 13 -25 -13 -6
0 -114 18 -147 6 -12 13 -47 15 -77 1 -30 6 -94 10 -142 13 -132 1 -251 -37
-375 -28 -89 -40 -115 -74 -151 -50 -53 -115 -97 -225 -153 -70 -35 -96 -43
-158 -47 -47 -3 -70 -8 -61 -13 58 -37 259 36 435 158 66 45 83 51 83 31 -1
-21 -30 -53 -47 -53 -9 0 -21 -14 -27 -33 -6 -18 -26 -44 -43 -58 -17 -13 -41
-40 -53 -59 -12 -19 -30 -35 -39 -35 -20 0 -71 -43 -71 -59 0 -9 -102 -61
-277 -142 -22 -11 -44 -27 -47 -36 -14 -35 -179 14 -246 72 -34 30 -73 37
-135 24 -33 -7 -67 -20 -76 -29 -9 -9 -43 -22 -75 -29 -32 -7 -81 -21 -109
-31 -27 -10 -79 -21 -115 -24 -94 -9 -131 -15 -165 -26 -16 -5 -54 -9 -82 -9
-34 1 -62 -4 -79 -15 -19 -13 -36 -16 -65 -11 -30 5 -40 3 -45 -8 -26 -69
-109 136 -134 333 -13 107 -13 464 1 550 6 36 14 99 19 140 8 78 38 218 64
305 9 28 16 62 16 77 0 15 8 42 18 60 10 18 28 66 41 106 13 40 27 75 32 78 5
3 9 13 9 23 0 9 14 38 30 64 17 26 30 52 30 58 0 6 13 27 28 47 16 20 55 75
88 121 108 153 220 254 389 349 113 63 224 103 313 111 7 0 48 -17 91 -38z
m-3381 -243 c37 2 94 10 126 18 45 12 66 13 83 5 13 -6 44 -11 69 -11 56 0 50
-13 -13 -30 -27 -7 -52 -17 -57 -21 -6 -5 -16 -9 -24 -9 -34 0 -279 -101 -417
-171 -258 -131 -484 -286 -666 -456 -83 -78 -94 -85 -97 -65 -5 36 18 165 33
189 9 13 12 33 9 52 -7 35 11 97 32 109 12 7 13 14 4 36 -9 24 -6 38 20 91 16
34 30 67 30 74 0 15 69 82 125 121 37 26 78 36 165 43 19 2 47 7 63 11 17 5
38 4 57 -4 22 -9 34 -9 43 -2 7 7 51 12 98 13 46 1 98 5 114 10 93 25 100 26
118 10 13 -11 36 -14 85 -13z m2042 -128 c-8 -5 -17 -7 -19 -4 -3 3 1 9 9 14
8 5 17 7 19 4 3 -3 -1 -9 -9 -14z m-40 -31 c0 -12 -29 -24 -37 -16 -3 4 -3 13
0 21 6 16 37 11 37 -5z m-1715 -2739 c4 -6 -9 -10 -32 -9 -38 1 -38 1 -8 9 17
4 31 8 32 9 1 0 5 -3 8 -9z m135 0 c10 -7 -5 -9 -50 -8 -63 1 -64 1 -20 8 25
4 47 8 50 8 3 1 12 -3 20 -8z m-360 -10 c19 -6 13 -8 -30 -9 -30 -1 -167 -10
-305 -21 -265 -21 -291 -23 -284 -16 11 11 358 43 584 54 6 0 21 -4 35 -8z
m625 -5 c72 -4 146 -11 165 -16 24 -6 2 -7 -70 -3 -214 10 -290 17 -290 26 0
5 15 7 33 4 17 -3 91 -8 162 -11z m305 -35 c10 -7 -1 -8 -35 -4 -27 4 -52 8
-54 10 -10 9 75 3 89 -6z m-260 -514 c14 -2 93 -7 175 -10 225 -11 782 -63
900 -85 28 -5 84 -12 125 -16 86 -7 180 -24 195 -34 14 -10 110 -33 122 -29 6
2 22 -9 36 -24 16 -17 36 -28 53 -28 31 0 64 -25 64 -49 0 -9 8 -21 18 -26 10
-6 40 -21 65 -34 26 -14 47 -29 47 -33 0 -4 11 -8 25 -8 17 0 29 -8 35 -22 15
-38 36 -58 61 -60 13 -2 37 -18 54 -35 16 -18 36 -33 42 -33 7 0 13 -12 13
-26 0 -15 4 -23 11 -19 17 11 59 -4 59 -21 0 -10 6 -14 15 -10 9 3 18 0 21 -8
3 -7 23 -19 45 -26 22 -8 51 -24 64 -38 14 -13 31 -22 39 -19 7 3 19 0 25 -6
9 -9 14 -8 21 3 9 13 11 13 20 0 5 -8 7 -22 5 -31 -8 -24 19 -41 51 -33 19 5
25 4 20 -5 -9 -14 -119 -14 -236 -1 -88 10 -362 32 -605 50 -77 5 -196 14
-265 19 -416 32 -559 41 -1190 73 -324 17 -1509 16 -1815 0 -126 -7 -324 -19
-440 -27 -362 -25 -497 -28 -519 -11 -19 16 -14 36 10 36 8 0 14 6 13 13 -3
27 2 35 21 30 15 -4 19 -1 15 9 -4 9 6 18 29 26 31 12 66 49 70 76 2 13 28 46
79 99 20 21 37 45 37 53 0 8 3 14 8 14 7 0 54 44 126 118 21 22 50 46 64 53
15 8 35 21 44 29 25 20 113 36 301 55 89 9 169 18 177 20 13 3 147 12 630 39
78 4 984 -3 1020 -8z m1758 -66 c23 -7 19 -8 -22 -9 -42 -1 -47 1 -36 14 7 8
17 12 22 9 5 -3 22 -10 36 -14z m-1890 -656 c73 -6 85 -9 99 -31 9 -13 13 -26
10 -30 -3 -3 0 -12 8 -20 17 -16 11 -53 -13 -90 -8 -13 -10 -23 -6 -23 13 0
10 -91 -4 -116 -23 -44 38 -69 202 -84 241 -23 505 -56 514 -64 18 -18 -39
-24 -257 -25 -242 -2 -1075 15 -1191 24 -197 15 -224 21 -196 44 13 11 78 21
269 40 55 6 83 13 96 27 18 19 18 20 -1 41 -13 13 -17 26 -12 35 5 7 8 22 9
33 0 22 -32 85 -52 100 -7 6 -16 35 -19 65 -3 30 -7 59 -7 64 -1 6 29 11 68
14 38 2 72 5 74 7 5 6 303 -3 409 -11z m387 -783 c110 -6 277 -15 370 -21 94
-6 238 -15 320 -20 83 -5 164 -11 180 -14 30 -5 81 -11 350 -41 345 -39 426
-56 610 -125 28 -10 78 -26 112 -36 46 -12 63 -22 67 -38 3 -11 6 -162 6 -334
0 -206 3 -311 10 -307 6 4 10 83 10 203 0 184 14 439 24 450 3 2 10 0 17 -4
15 -9 29 -10 274 -19 218 -9 320 -14 475 -25 69 -5 178 -12 243 -15 65 -3 128
-10 140 -16 11 -7 46 -17 76 -25 72 -16 214 -66 232 -80 13 -11 47 -24 73 -28
6 -1 22 -8 36 -16 14 -8 33 -13 43 -11 10 1 26 -4 35 -11 10 -8 28 -15 41 -16
14 0 36 -10 50 -22 15 -11 39 -28 55 -38 40 -24 117 -101 115 -115 -3 -25 2
-37 22 -56 21 -20 21 -20 2 -53 -11 -18 -21 -51 -22 -72 -2 -22 -13 -60 -26
-85 -12 -25 -27 -57 -33 -71 -5 -14 -29 -68 -51 -121 -23 -53 -45 -119 -51
-147 -5 -27 -19 -76 -31 -108 -19 -52 -58 -245 -73 -358 -3 -23 -12 -72 -20
-111 -8 -38 -17 -104 -20 -146 -3 -41 -10 -111 -16 -155 -13 -111 -30 -475
-36 -797 -3 -150 -7 -319 -9 -377 -2 -58 0 -130 5 -160 5 -30 12 -125 15 -210
6 -184 5 -166 15 -265 16 -141 19 -187 25 -370 3 -99 8 -202 11 -230 3 -27 7
-93 9 -145 2 -52 11 -133 20 -180 21 -107 35 -243 35 -338 0 -41 4 -92 10
-115 5 -23 11 -73 15 -112 6 -80 27 -256 50 -425 9 -63 20 -158 25 -210 5 -52
11 -115 14 -140 26 -220 49 -429 61 -553 8 -81 17 -152 20 -157 3 -6 8 -38 11
-72 12 -157 64 -517 81 -558 3 -8 9 -33 14 -55 4 -22 15 -76 24 -120 9 -44 20
-110 24 -146 4 -36 12 -72 17 -80 4 -8 11 -36 15 -64 4 -27 21 -131 37 -230
65 -392 105 -682 128 -930 3 -33 10 -76 15 -95 5 -19 9 -61 9 -93 0 -33 9
-103 20 -157 11 -54 21 -111 21 -127 1 -15 5 -57 9 -93 5 -36 14 -112 20 -170
7 -58 16 -116 22 -130 6 -14 14 -43 19 -65 4 -22 14 -67 23 -100 16 -66 44
-255 56 -380 4 -44 11 -91 14 -105 4 -14 13 -70 21 -125 7 -55 25 -167 39
-250 34 -202 56 -476 54 -667 -1 -107 2 -161 10 -170 7 -9 14 -71 17 -154 3
-76 10 -157 15 -179 8 -34 31 -240 32 -285 0 -8 7 -60 15 -115 22 -145 27
-259 14 -325 -10 -49 -9 -63 5 -93 14 -28 15 -46 7 -93 -7 -50 -6 -67 11 -107
17 -43 18 -53 7 -84 -14 -38 -9 -207 9 -328 6 -33 10 -133 11 -222 1 -168 11
-302 29 -388 5 -27 14 -102 20 -165 5 -63 14 -164 19 -225 6 -60 13 -166 16
-235 3 -69 13 -181 22 -250 8 -69 16 -141 17 -160 1 -35 1 -35 -49 -42 -27 -3
-107 -7 -177 -7 -139 -1 -158 -5 -158 -31 0 -17 8 -18 99 -13 111 6 254 -11
272 -33 9 -11 12 -111 13 -352 1 -303 -1 -340 -16 -371 -10 -19 -18 -47 -18
-63 0 -15 -4 -28 -10 -28 -5 0 -10 -7 -10 -15 0 -9 -11 -21 -25 -27 -14 -6
-25 -15 -25 -20 0 -4 -8 -8 -18 -8 -10 0 -38 -10 -63 -22 -43 -20 -131 -48
-156 -48 -7 0 -16 12 -20 28 l-7 27 -6 -35 c-4 -28 -10 -36 -35 -42 -16 -4
-84 -21 -150 -37 -150 -38 -459 -109 -545 -125 -36 -7 -190 -39 -343 -70 -217
-44 -282 -54 -293 -45 -9 7 -14 8 -14 1 0 -14 -47 -28 -150 -47 -47 -8 -146
-26 -220 -40 -74 -14 -173 -32 -220 -39 -47 -8 -148 -26 -225 -41 -77 -14
-169 -30 -205 -36 -36 -5 -159 -25 -275 -44 -115 -19 -255 -41 -310 -49 -505
-74 -590 -88 -645 -103 -105 -29 -120 -35 -120 -44 0 -6 -4 -8 -8 -5 -15 9
-75 -53 -86 -91 -5 -17 -3 -23 7 -23 23 0 27 -37 7 -60 -9 -11 -22 -20 -28
-20 -6 0 -7 -13 -2 -34 4 -19 5 -38 1 -42 -3 -4 -1 -4 5 -1 7 4 18 -1 25 -10
8 -10 10 -18 4 -20 -43 -15 -60 -31 -63 -58 -5 -59 -12 -75 -32 -75 -10 0 -22
-5 -26 -12 -4 -7 -3 -8 4 -4 17 10 15 -3 -3 -20 -14 -15 -11 -44 6 -44 18 0 8
-28 -21 -56 -16 -16 -30 -34 -30 -39 0 -6 -20 -26 -45 -45 -28 -23 -44 -43
-45 -57 0 -19 -5 -23 -35 -23 -24 0 -35 -5 -35 -15 0 -15 7 -18 43 -18 9 0 17
-3 17 -7 0 -16 -27 -29 -51 -24 -13 3 -20 2 -14 -3 14 -11 17 -83 4 -83 -6 0
-8 8 -5 18 5 15 4 15 -8 -2 -9 -11 -21 -16 -32 -12 -20 8 -64 -36 -64 -63 0
-10 -6 -23 -12 -29 -18 -14 -126 -35 -150 -29 -11 3 -17 3 -14 0 3 -3 -2 -12
-12 -19 -12 -9 -19 -9 -24 -1 -5 8 -11 7 -22 -2 -8 -7 -20 -10 -27 -6 -8 6 -7
10 2 17 11 7 11 11 1 15 -6 2 -9 9 -6 15 4 6 -2 6 -14 -1 -23 -12 -32 -4 -28
24 3 20 -8 32 -73 83 -24 19 -48 31 -57 28 -17 -6 -39 39 -28 56 4 6 2 8 -3 5
-6 -4 -13 0 -17 8 -3 8 -13 15 -23 15 -15 0 -16 2 -3 10 11 7 11 10 2 10 -7 0
-11 4 -8 9 3 5 -3 11 -14 14 -20 5 -28 27 -10 27 6 0 10 5 10 11 0 5 -5 7 -11
4 -13 -9 -8 47 5 57 14 9 -14 40 -31 34 -8 -3 -13 0 -12 7 1 6 -2 20 -6 31 -6
13 -3 21 9 28 12 7 14 13 6 29 -6 10 -17 19 -25 19 -8 0 -15 7 -15 15 0 9 -7
18 -15 21 -8 4 -13 10 -10 14 3 5 1 11 -5 15 -5 3 -9 16 -9 28 1 22 -14 71
-36 117 -7 15 -9 40 -5 64 5 26 3 48 -6 65 -8 14 -11 34 -8 43 12 39 -54 45
-561 53 -949 14 -1703 68 -2515 180 -58 8 -190 26 -295 40 -104 14 -233 33
-285 41 -52 8 -124 19 -160 25 -36 5 -103 16 -150 24 -47 8 -159 27 -250 41
-91 14 -187 32 -214 40 -27 8 -63 14 -80 14 -37 0 -250 52 -254 63 -2 4 -14 7
-27 7 -13 0 -36 5 -50 12 -24 11 -26 17 -23 52 3 31 0 45 -15 58 -11 10 -23
15 -28 13 -4 -3 -13 4 -19 15 -9 16 -8 22 5 26 8 3 15 14 16 23 0 10 2 12 6 3
7 -18 43 30 43 58 0 12 -5 31 -11 43 -9 16 -9 22 0 25 6 2 11 10 11 18 0 8 -6
11 -15 7 -9 -3 -15 -2 -13 3 6 24 -13 94 -27 94 -9 0 -15 9 -15 24 0 13 -7 29
-15 36 -9 7 -14 19 -11 27 3 7 -1 13 -10 13 -8 0 -12 5 -9 10 3 6 1 10 -4 10
-14 0 -14 27 0 32 6 2 1 15 -11 31 -12 15 -26 24 -32 21 -6 -4 -9 -1 -6 7 3 8
1 28 -4 44 -10 36 -28 119 -34 158 -2 15 -9 37 -15 48 -8 15 -8 24 0 32 7 7 7
14 0 23 -5 7 -11 28 -12 48 -2 19 -6 38 -10 42 -7 7 -11 -9 -8 -33 2 -15 -15
-26 -17 -10 -7 41 -6 167 0 167 4 0 5 6 2 14 -3 8 -11 13 -19 10 -8 -3 -14 5
-17 24 -3 22 -1 29 9 25 16 -6 13 17 -4 32 -10 8 -16 44 -24 135 0 8 -7 36
-15 61 -8 26 -14 51 -12 55 4 18 -14 110 -28 137 -13 24 -13 29 0 43 10 10 13
22 8 37 -5 12 -8 47 -7 77 0 30 -5 60 -11 67 -6 6 -12 41 -13 77 -1 37 -9 88
-17 114 -8 26 -17 74 -20 107 -7 79 -8 88 -18 104 -6 10 -5 12 2 7 8 -5 12 4
12 28 0 20 -4 36 -10 36 -5 0 -7 6 -4 14 3 8 1 24 -6 35 -10 19 -8 21 15 21
17 0 25 5 22 13 -2 6 -16 11 -31 10 -29 -2 -35 17 -11 37 10 9 48 10 142 5
208 -11 276 -10 302 4 14 8 21 9 17 2 -4 -6 -4 -11 1 -11 4 0 14 12 20 27 11
22 10 29 -3 44 -9 10 -11 20 -6 23 6 3 9 30 9 59 -1 29 2 58 6 64 7 12 -11 63
-26 74 -4 3 -19 37 -32 75 -21 59 -22 71 -10 80 12 9 12 14 -6 32 -11 12 -27
22 -36 22 -9 0 -26 9 -38 20 -15 14 -40 21 -81 25 -32 2 -77 11 -99 18 -22 8
-64 18 -92 22 -70 9 -80 23 -64 87 10 35 10 52 3 57 -6 3 -11 20 -11 36 0 17
-2 46 -6 65 -3 19 -7 136 -8 260 -2 146 -7 232 -14 245 -22 38 -35 116 -22
131 8 10 8 14 1 14 -6 0 -9 6 -6 13 3 8 0 27 -7 43 -13 34 -15 54 -32 276 -7
98 -9 217 -5 290 3 67 9 257 13 422 3 164 9 306 14 315 5 9 11 45 15 81 3 36
8 76 10 90 2 14 7 61 11 104 3 44 7 82 9 85 2 3 7 51 11 106 3 55 8 114 11
130 4 28 20 221 30 365 6 92 23 227 35 279 5 24 12 94 15 155 3 61 10 132 16
159 5 26 12 75 13 110 2 34 9 136 15 227 9 149 17 238 49 555 5 55 15 168 21
250 7 83 21 224 31 315 10 91 19 187 19 213 0 27 4 56 9 65 5 9 12 51 15 92 4
41 11 125 17 185 5 61 12 146 15 190 6 83 12 122 64 390 51 266 60 323 75 490
9 88 19 185 25 215 15 89 32 203 35 235 2 17 8 64 14 105 6 41 13 109 16 150
6 81 19 181 40 300 7 41 13 82 13 90 -1 8 6 42 15 75 9 35 18 133 22 235 l7
175 34 28 c28 24 32 32 27 58 -4 21 -1 34 8 40 25 15 29 10 29 -35 0 -31 5
-46 16 -50 24 -9 34 2 34 37 l1 32 14 -26 c18 -33 34 -40 80 -32 56 9 71 37
79 149 9 116 -1 134 -70 134 -42 0 -84 -27 -84 -53 0 -5 -9 2 -21 17 -17 21
-29 26 -67 26 l-47 0 -3 49 c-3 46 -1 49 27 59 37 13 55 45 49 91 -3 20 0 87
6 149 6 62 8 118 5 125 -4 7 -3 41 1 77 5 36 11 111 13 167 3 56 10 108 17
115 6 7 16 21 23 30 7 11 31 20 59 24 45 6 47 5 63 -26 18 -35 20 -128 10
-355 -16 -337 -16 -345 5 -345 10 0 21 8 24 18 3 9 10 118 16 242 18 362 25
435 43 464 22 32 60 52 118 61 43 6 48 5 78 -27 29 -31 31 -37 31 -115 0 -55
4 -83 11 -83 8 0 10 35 7 118 -4 98 -8 123 -27 154 -28 46 -44 51 -129 42 -59
-6 -71 -11 -99 -40 -33 -36 -53 -43 -53 -20 0 28 -32 40 -102 41 -67 0 -71 1
-75 24 -2 14 -9 31 -15 39 -10 11 -8 18 9 31 12 10 22 29 22 42 2 53 6 77 12
73 10 -6 19 24 13 40 -3 7 3 40 12 72 17 59 18 65 11 404 -1 85 13 262 22 275
4 6 8 21 9 35 1 14 4 35 7 47 3 12 2 24 -2 26 -5 3 -5 54 -1 114 4 59 8 117 8
128 1 11 0 43 -3 70 -2 28 2 77 10 109 7 32 11 61 9 64 -3 2 -1 13 4 23 12 22
13 49 6 108 -3 25 -2 47 2 50 14 10 43 81 38 90 -3 5 1 14 10 22 22 18 37 49
41 88 2 19 8 40 14 47 5 7 9 45 8 86 -2 74 12 118 37 118 7 0 14 15 18 33 7
43 7 184 0 226 -5 27 -3 37 14 50 25 19 30 49 14 78 -14 25 -5 86 12 80 6 -2
14 -20 17 -40 11 -66 21 -54 18 21 -4 70 -3 74 23 89 22 14 25 22 21 48 -3 19
1 44 11 63 9 18 17 35 18 39 1 5 8 14 15 21 7 7 13 27 13 43 0 19 5 29 15 29
8 0 20 9 27 20 7 11 20 20 29 20 9 0 29 15 45 33 29 32 30 35 33 62 0 8 9 15
19 15 27 0 52 32 59 74 4 29 10 36 28 36 12 0 28 7 35 15 7 8 21 15 31 15 12
0 19 7 19 19 0 11 9 23 21 26 41 13 88 51 98 78 5 15 17 27 26 27 16 0 25 4
92 38 23 12 52 22 64 22 13 0 32 8 43 19 12 10 42 24 68 31 26 7 47 15 46 19
-2 18 3 32 11 27 4 -3 6 6 3 21 -4 23 -2 25 16 21 12 -3 29 0 39 8 10 7 31 14
47 14 16 0 45 10 64 22 35 21 46 24 129 31 23 2 55 9 70 15 15 6 75 16 133 22
58 5 139 15 180 20 41 6 122 15 180 20 58 5 146 14 196 20 184 20 713 56 1009
70 241 11 1375 4 1640 -9z m-4867 -5018 l-3 -78 -32 -3 -33 -3 0 65 c0 83 5
96 41 96 l30 0 -3 -77z m-183 28 c-3 -6 -11 -8 -17 -5 -6 4 -5 9 3 15 16 10
23 4 14 -10z m-535 -10621 c0 -5 -5 -10 -11 -10 -5 0 -7 5 -4 10 3 6 8 10 11
10 2 0 4 -4 4 -10z"/>
<path d="M31513 47437 c-83 -46 -142 -246 -119 -401 10 -63 22 -58 20 8 -4
156 73 326 147 326 42 0 61 -104 38 -209 l-10 -50 -70 6 -69 6 0 -30 c0 -30 1
-30 60 -36 92 -8 195 -77 249 -167 26 -44 26 -62 0 -86 -36 -32 -162 -13 -199
30 -12 15 -40 22 -40 11 0 -14 34 -55 45 -55 6 0 20 -8 29 -19 18 -20 74 -33
143 -35 60 -1 78 20 77 88 -1 71 -34 126 -120 204 l-66 59 12 42 c17 64 15
190 -3 233 -19 46 -60 88 -84 88 -10 -1 -28 -6 -40 -13z"/>
<path d="M31121 47422 c-25 -46 -31 -144 -16 -251 20 -137 105 -423 158 -530
46 -92 112 -173 161 -197 26 -13 24 -9 -16 25 -65 57 -121 150 -168 276 -31
83 -90 290 -105 371 -17 86 -20 243 -6 292 11 36 7 42 -8 14z"/>
<path d="M31522 46978 l-40 -41 -36 22 c-41 26 -42 25 -20 -18 12 -25 20 -30
36 -25 12 4 24 1 28 -7 11 -17 55 12 80 54 24 38 24 43 5 50 -9 4 -30 -10 -53
-35z"/>
<path d="M31555 45761 c-8 -15 3 -31 21 -31 9 0 14 7 12 17 -4 20 -24 28 -33
14z"/>
<path d="M28230 44169 c0 -5 5 -7 10 -4 6 3 10 8 10 11 0 2 -4 4 -10 4 -5 0
-10 -5 -10 -11z"/>
<path d="M32490 42158 c0 -8 10 -43 23 -79 l22 -64 3 39 c4 41 -11 88 -34 107
-11 9 -14 8 -14 -3z"/>
<path d="M32639 41569 c-17 -17 -20 -30 -16 -65 6 -55 48 -114 82 -114 68 0
75 106 11 178 -24 28 -50 28 -77 1z"/>
<path d="M32583 40670 c-28 -23 -30 -50 -3 -50 23 0 44 34 33 54 -7 12 -12 11
-30 -4z"/>
<path d="M32670 40630 c-9 -6 -10 -10 -3 -10 6 0 15 5 18 10 8 12 4 12 -15 0z"/>
<path d="M32625 40530 c3 -5 8 -10 11 -10 2 0 4 5 4 10 0 6 -5 10 -11 10 -5 0
-7 -4 -4 -10z"/>
<path d="M32896 40333 c-12 -12 -6 -43 8 -43 18 0 28 37 11 44 -7 2 -16 2 -19
-1z"/>
<path d="M33138 39653 c-18 -5 -31 -30 -22 -44 9 -15 54 -11 54 5 0 8 3 21 6
30 6 16 -3 18 -38 9z"/>
<path d="M34372 38881 c-9 -5 16 -10 65 -13 90 -5 133 -23 199 -81 34 -30 45
-36 43 -22 -6 27 -103 92 -163 110 -55 17 -124 19 -144 6z"/>
<path d="M33952 38000 c0 -14 2 -19 5 -12 2 6 2 18 0 25 -3 6 -5 1 -5 -13z"/>
<path d="M33962 37950 c0 -14 2 -19 5 -12 2 6 2 18 0 25 -3 6 -5 1 -5 -13z"/>
<path d="M34525 37920 c3 -5 8 -10 11 -10 2 0 4 5 4 10 0 6 -5 10 -11 10 -5 0
-7 -4 -4 -10z"/>
<path d="M33980 37880 c0 -8 5 -22 10 -30 9 -13 10 -13 10 0 0 8 -5 22 -10 30
-9 13 -10 13 -10 0z"/>
<path d="M34565 37866 c10 -45 -3 -82 -33 -96 -22 -11 -24 -14 -9 -17 23 -6
12 -23 -16 -23 -15 0 -18 -3 -10 -11 14 -14 68 13 83 40 15 28 12 82 -6 111
l-15 25 6 -29z"/>
<path d="M34000 37805 c0 -11 5 -27 10 -35 8 -12 10 -12 10 5 0 11 -5 27 -10
35 -8 12 -10 12 -10 -5z"/>
<path d="M34020 37735 c0 -38 95 -234 134 -279 35 -39 33 -27 -4 27 -38 57
-75 130 -95 192 -16 48 -35 80 -35 60z"/>
<path d="M34190 37416 c0 -2 7 -7 16 -10 8 -3 12 -2 9 4 -6 10 -25 14 -25 6z"/>
<path d="M30383 38853 c-14 -5 -18 -33 -5 -33 17 0 82 21 86 29 6 9 -61 12
-81 4z"/>
<path d="M33277 35003 c-14 -13 -6 -33 13 -33 11 0 20 4 20 9 0 13 -26 32 -33
24z"/>
<path d="M33795 34710 c3 -5 10 -10 16 -10 5 0 9 5 9 10 0 6 -7 10 -16 10 -8
0 -12 -4 -9 -10z"/>
<path d="M27752 33043 c-27 -5 -41 -31 -23 -42 13 -9 91 26 91 40 0 9 -26 10
-68 2z"/>
<path d="M26986 32011 c-4 -7 -5 -15 -2 -18 9 -9 19 4 14 18 -4 11 -6 11 -12
0z"/>
<path d="M34240 30162 c0 -9 52 -69 115 -132 63 -63 115 -119 115 -125 -1 -5
-43 -57 -95 -115 -88 -98 -108 -131 -86 -144 8 -6 49 36 160 162 l63 72 84 0
c46 0 84 4 84 8 0 28 -29 40 -100 44 l-75 4 -125 122 c-69 67 -128 122 -132
122 -5 0 -8 -8 -8 -18z"/>
<path d="M27380 30110 c0 -5 5 -10 10 -10 6 0 10 5 10 10 0 6 -4 10 -10 10 -5
0 -10 -4 -10 -10z"/>
<path d="M27220 29714 c0 -8 5 -12 10 -9 6 3 10 10 10 16 0 5 -4 9 -10 9 -5 0
-10 -7 -10 -16z"/>
<path d="M27216 29653 c10 -40 14 -41 14 -5 0 18 -5 32 -10 32 -6 0 -8 -11 -4
-27z"/>
<path d="M34615 29475 c-38 -58 -72 -102 -75 -97 -4 4 -14 28 -24 54 -21 57
-75 108 -115 108 -38 0 -77 -46 -86 -101 -8 -49 3 -263 16 -296 8 -23 10 -23
209 -23 l201 0 -3 23 c-3 20 -9 22 -86 27 -94 6 -102 12 -102 78 0 50 3 56 87
183 56 86 80 149 55 149 -4 0 -39 -47 -77 -105z m-156 -9 c26 -21 50 -91 62
-185 10 -78 10 -94 -2 -102 -20 -12 -156 -11 -164 1 -10 17 -18 193 -11 234
13 68 65 92 115 52z"/>
<path d="M27201 29404 c0 -11 3 -14 6 -6 3 7 2 16 -1 19 -3 4 -6 -2 -5 -13z"/>
<path d="M27199 29350 c-6 -49 -5 -90 1 -90 12 0 20 72 10 89 -8 14 -10 14
-11 1z"/>
<path d="M29550 29231 c-14 -5 -54 -6 -90 -4 -84 6 -101 -6 -111 -78 -13 -93
-11 -189 5 -189 13 0 26 78 26 164 0 52 13 66 61 66 48 0 52 -13 43 -131 -6
-86 -5 -91 12 -87 17 3 20 16 24 105 3 56 8 104 12 108 14 14 85 17 93 4 5 -7
7 -59 6 -116 -1 -64 1 -103 8 -103 16 0 19 11 26 115 6 89 5 102 -11 122 -21
26 -66 36 -104 24z"/>
<path d="M29065 29210 c-3 -6 -9 -66 -12 -135 l-6 -125 106 0 c106 0 123 5
108 29 -6 9 -31 12 -82 11 -100 -3 -99 -4 -99 30 0 38 17 46 105 49 72 2 93
10 80 31 -5 8 -31 10 -90 5 -91 -8 -104 0 -85 50 9 23 14 25 80 25 70 0 110
11 110 30 0 13 -207 13 -215 0z"/>
<path d="M28804 29193 c-17 -17 -16 -18 22 -23 l39 -5 0 -109 c0 -78 4 -110
13 -113 9 -3 12 13 13 59 0 35 4 85 7 113 7 48 8 50 45 56 42 7 52 13 42 28
-3 6 -40 11 -85 11 -61 0 -82 -4 -96 -17z"/>
<path d="M28595 29191 c-55 -7 -75 -29 -75 -86 0 -50 13 -60 87 -65 63 -5 68
-7 71 -29 6 -36 -22 -51 -95 -51 -58 0 -63 -2 -63 -21 0 -21 3 -21 78 -14 47
4 84 13 95 23 21 18 24 104 4 120 -7 6 -42 12 -77 14 -65 3 -65 3 -65 33 0 33
20 42 107 44 48 1 71 17 47 32 -15 9 -35 9 -114 0z"/>
<path d="M28435 29158 c-2 -13 -6 -36 -7 -53 -3 -27 -7 -30 -48 -37 -67 -12
-78 -5 -82 49 -4 68 -28 69 -28 1 0 -60 20 -98 51 -98 19 0 25 -27 20 -89 -4
-44 24 -16 29 30 7 53 15 69 39 69 29 0 51 43 51 100 0 51 -16 68 -25 28z"/>
<path d="M28084 29163 c-34 -6 -54 -36 -56 -81 -2 -59 13 -72 83 -72 62 0 74
-8 65 -44 -5 -21 -14 -24 -78 -30 -39 -3 -74 -8 -76 -11 -3 -2 -2 -12 2 -21 6
-14 16 -16 73 -10 39 4 75 14 85 23 23 21 32 71 19 106 -10 25 -14 27 -70 27
-66 0 -90 15 -72 48 11 20 50 32 106 32 32 0 61 20 48 33 -7 7 -93 7 -129 0z"/>
<path d="M27660 29120 c-11 -11 -20 -26 -20 -32 0 -7 -3 -49 -6 -94 -9 -118
-3 -126 94 -122 69 3 77 5 77 23 0 18 -7 20 -70 20 l-70 0 0 77 c0 86 7 98 56
104 19 2 48 5 64 7 18 2 30 10 30 18 0 10 -17 15 -67 17 -57 2 -70 0 -88 -18z"/>
<path d="M27567 29123 c-3 -5 -8 -65 -12 -135 -6 -109 -5 -128 8 -128 14 0 27
97 27 212 0 43 -12 69 -23 51z"/>
<path d="M27354 29106 c-22 -17 -12 -33 26 -38 25 -3 25 -4 25 -107 0 -71 4
-106 12 -108 13 -5 22 45 26 147 2 62 3 65 32 75 32 11 47 24 39 37 -9 14
-139 9 -160 -6z"/>
<path d="M27210 29101 c-50 -9 -67 -48 -69 -160 -2 -104 6 -116 77 -112 76 3
86 21 90 148 3 94 2 108 -14 120 -19 14 -28 14 -84 4z m70 -111 c0 -90 -11
-110 -60 -110 -44 0 -43 -1 -41 80 3 79 7 88 44 92 53 6 57 1 57 -62z"/>
<path d="M26978 29083 c-24 -6 -27 -20 -34 -151 -8 -135 -10 -131 74 -124 42
3 56 9 68 27 20 31 31 220 13 241 -11 13 -81 18 -121 7z m92 -73 c0 -22 -43
-45 -67 -36 -14 6 -18 38 -6 49 3 4 21 7 40 7 26 0 33 -4 33 -20z m-3 -106 c8
-21 -5 -31 -49 -39 -33 -6 -38 -5 -38 12 0 10 5 24 12 31 17 17 67 15 75 -4z"/>
<path d="M34354 28946 c-7 -18 21 -370 31 -386 4 -6 84 -10 206 -10 l199 0 0
26 c0 91 -33 358 -46 371 -18 18 -18 18 1 -162 22 -205 28 -185 -59 -185 -43
0 -78 5 -82 11 -3 6 -12 71 -19 144 -7 73 -16 138 -20 145 -18 29 -21 -17 -8
-143 7 -72 11 -138 8 -145 -3 -9 -26 -12 -82 -10 l-78 3 -17 173 c-9 96 -19
176 -22 179 -3 3 -8 -2 -12 -11z"/>
<path d="M34635 28293 c8 -93 11 -107 25 -98 5 3 6 35 3 70 l-6 65 55 0 55 0
19 -62 c15 -48 19 -94 19 -193 0 -120 -2 -133 -24 -169 -85 -137 -253 -81
-309 102 -30 95 -36 194 -19 268 15 63 8 106 -12 74 -17 -26 -33 -149 -26
-203 29 -240 116 -367 251 -367 112 0 165 82 171 265 4 94 1 124 -21 209 -14
54 -31 104 -37 112 -8 10 -34 14 -81 14 l-70 0 7 -87z"/>
<path d="M35380 28010 c0 -5 5 -10 10 -10 6 0 10 5 10 10 0 6 -4 10 -10 10 -5
0 -10 -4 -10 -10z"/>
<path d="M34795 27580 c-37 -60 -71 -107 -75 -105 -5 3 -16 28 -25 55 -48 144
-180 145 -200 2 -6 -47 11 -301 22 -312 2 -2 90 -3 196 -1 195 3 227 9 208 40
-7 10 -30 13 -89 12 -48 -1 -83 3 -87 9 -4 6 -9 34 -12 63 -4 51 -3 55 71 177
69 114 91 170 67 170 -5 0 -40 -49 -76 -110z m-155 -18 c35 -35 58 -109 66
-213 l7 -79 -86 0 c-47 0 -88 4 -91 9 -10 15 -19 198 -12 235 8 43 37 76 67
76 11 0 33 -13 49 -28z"/>
<path d="M34123 27265 c0 -22 2 -30 4 -17 2 12 2 30 0 40 -3 9 -5 -1 -4 -23z"/>
<path d="M34547 27013 c-12 -11 -8 -43 6 -43 6 -1 74 -1 150 0 l138 1 39 -38
c46 -47 70 -119 70 -215 0 -75 -15 -122 -49 -152 -18 -16 -44 -21 -134 -27
-62 -4 -127 -8 -145 -8 -29 -1 -33 -4 -30 -23 3 -23 4 -23 143 -20 161 4 188
14 220 77 17 33 20 60 20 155 0 112 -1 118 -35 185 -54 107 -70 115 -245 115
-78 0 -145 -3 -148 -7z"/>
<path d="M34858 26318 c-22 -33 -26 -51 -38 -168 -14 -123 -30 -170 -60 -170
-77 0 -127 126 -100 254 13 62 7 82 -16 52 -19 -27 -18 -167 1 -234 37 -124
141 -162 181 -67 8 19 18 81 23 139 11 132 24 161 71 161 29 0 39 -7 63 -41
40 -57 57 -176 35 -249 -14 -50 -14 -75 2 -75 24 0 41 120 29 211 -11 91 -49
174 -89 194 -43 22 -85 19 -102 -7z"/>
<path d="M35050 25541 c0 -6 9 -28 21 -50 33 -64 49 -139 49 -237 0 -112 -27
-177 -89 -212 -49 -28 -85 -28 -141 1 -47 23 -100 96 -121 167 -16 54 -22 200
-10 250 11 49 0 75 -18 41 -19 -35 -25 -146 -11 -228 14 -88 58 -194 98 -236
108 -114 262 -77 307 75 30 101 13 281 -37 384 -21 44 -48 70 -48 45z"/>
<path d="M34955 24803 c-82 -7 -154 -18 -159 -23 -16 -16 2 -40 31 -40 85 1
367 30 375 38 6 6 8 18 5 26 -8 19 -42 19 -252 -1z"/>
<path d="M34816 24602 c-2 -4 0 -41 5 -82 5 -41 18 -154 29 -250 22 -192 27
-217 41 -203 6 6 5 46 -2 105 -13 115 -10 140 16 144 11 2 89 9 173 16 161 12
200 24 172 52 -13 13 -34 13 -188 0 -96 -9 -180 -13 -188 -10 -8 3 -14 18 -14
33 0 14 -5 66 -11 115 -11 80 -19 102 -33 80z"/>
<path d="M34441 24034 c0 -11 3 -14 6 -6 3 7 2 16 -1 19 -3 4 -6 -2 -5 -13z"/>
<path d="M35033 23985 c-39 -18 -77 -67 -99 -126 -24 -67 -21 -254 6 -341 23
-74 68 -141 119 -175 52 -35 135 -32 188 6 66 48 87 104 91 243 4 133 -11 212
-57 293 -43 76 -89 108 -159 112 -34 1 -70 -3 -89 -12z m141 -49 c82 -34 140
-165 141 -316 0 -148 -55 -238 -153 -248 -84 -8 -150 45 -193 155 -19 48 -23
78 -23 168 -1 94 2 116 21 150 49 92 125 125 207 91z"/>
<path d="M35235 23186 c-14 -14 -27 -42 -31 -66 -8 -52 -18 -57 -40 -21 -36
62 -104 68 -140 13 -31 -45 -37 -109 -25 -253 17 -184 11 -173 79 -165 31 4
122 15 202 24 l145 18 -2 94 c-5 203 -42 333 -102 364 -41 22 -58 20 -86 -8z
m99 -61 c12 -13 28 -41 34 -62 15 -52 37 -261 28 -270 -11 -11 -146 -17 -156
-7 -14 14 -30 235 -20 277 19 85 68 112 114 62z m-196 -48 c31 -33 51 -99 62
-202 7 -68 6 -93 -3 -102 -7 -7 -44 -15 -84 -19 l-71 -7 -9 59 c-4 33 -8 100
-8 151 0 83 2 94 24 117 30 32 61 33 89 3z"/>
<path d="M35218 22541 c-100 -32 -158 -150 -158 -321 0 -164 54 -298 143 -355
35 -22 123 -23 166 0 76 39 121 148 121 292 0 115 -15 187 -55 265 -49 98
-136 145 -217 119z m123 -74 c82 -55 124 -170 117 -322 -3 -68 -9 -102 -27
-138 -60 -124 -203 -143 -276 -37 -82 119 -88 353 -12 454 51 66 137 85 198
43z"/>
<path d="M34601 22234 c0 -11 3 -14 6 -6 3 7 2 16 -1 19 -3 4 -6 -2 -5 -13z"/>
<path d="M35463 21698 c-29 -48 -62 -106 -73 -128 -11 -22 -24 -40 -29 -40 -5
0 -17 22 -26 50 -22 65 -64 110 -103 110 -43 0 -88 -48 -98 -102 -9 -51 -6
-232 4 -303 9 -60 -2 -59 222 -27 176 26 200 33 200 62 0 23 -27 25 -115 10
-66 -10 -75 -2 -75 71 0 55 5 67 76 190 57 101 74 139 72 163 -3 29 -6 26 -55
-56z m-167 -105 c25 -38 44 -132 44 -220 l0 -61 -47 -6 c-27 -4 -65 -9 -85
-12 -44 -7 -44 -6 -52 121 -9 153 16 219 83 213 27 -2 41 -11 57 -35z"/>
<path d="M34673 21315 c0 -27 2 -38 4 -22 2 15 2 37 0 50 -2 12 -4 0 -4 -28z"/>
<path d="M34683 21130 c0 -30 2 -43 4 -27 2 15 2 39 0 55 -2 15 -4 2 -4 -28z"/>
<path d="M34712 20640 c0 -19 2 -27 5 -17 2 9 2 25 0 35 -3 9 -5 1 -5 -18z"/>
<path d="M34721 20445 c0 -27 4 -57 9 -65 8 -12 10 -10 9 10 0 14 -4 43 -8 65
l-9 40 -1 -50z"/>
<path d="M34752 19930 c0 -14 2 -19 5 -12 2 6 2 18 0 25 -3 6 -5 1 -5 -13z"/>
</g>
</svg>
