<?xml version="1.0" encoding="iso-8859-1"?>
<!-- Uploaded to: SVG Repo, www.svgrepo.com, Generator: SVG Repo Mixer Tools -->
<svg version="1.1" id="Layer_1" xmlns="http://www.w3.org/2000/svg" xmlns:xlink="http://www.w3.org/1999/xlink" 
	 viewBox="0 0 512 512" xml:space="preserve">
<rect x="259.499" y="393.349" style="fill:#F95428;" width="66.838" height="86.81"/>
<rect x="259.499" y="393.349" style="fill:#E54728;" width="28.344" height="86.81"/>
<rect x="335.546" y="336.553" style="fill:#F7B239;" width="64.315" height="46.27"/>
<g>
	<path style="fill:#2BA5F7;" d="M347.974,101.811v75.066h-6.214h-76.085c-31.145,0-58.163,17.934-71.325,43.995
		c-19.127,18.369-42.323,15.369-60.766,15.369c-10.986,0-5.973-34.346-14.722-29.027v-0.012
		c7.693-22.855,20.593-43.337,37.284-60.015c28.025-28.038,66.751-45.375,109.529-45.375h76.085H347.974z"/>
	<path style="fill:#2BA5F7;" d="M358.625,382.822v28.796h-92.95c-68.255,0-126.158-44.132-146.813-105.39
		c8.749,5.319,8.091-50.831,19.077-50.831c18.443,0,45.798,50.595,56.411,37.16c13.161,26.062,40.18,43.995,71.325,43.995h92.95
		V382.822z"/>
</g>
<g>
	<path style="fill:#2197D8;" d="M137.492,207.201v0.012c8.749-5.319,3.741,29.032,14.727,29.032c0.969,0,1.951,0.012,2.945,0.025
		c-7.544,0.373-14.876-0.025-21.588-0.025c-10.986,0-5.978-34.351-14.727-29.032v-0.012c7.693-22.855,20.593-43.337,37.284-60.015
		c28.025-28.038,66.751-45.375,109.529-45.375h18.642c-42.777,0-81.503,17.337-109.529,45.375
		C158.085,163.864,145.185,184.346,137.492,207.201z"/>
	<path style="fill:#2197D8;" d="M284.305,411.618h-18.642c-68.255,0-126.158-44.132-146.813-105.39
		c8.749,5.319,8.091-50.831,19.077-50.831c4.052,0,8.526,2.436,13.161,6.102c-5.63,14.392-6.649,48.954-13.596,44.729
		C158.147,367.486,216.05,411.618,284.305,411.618z"/>
</g>
<rect x="343.04" y="229.298" style="fill:#F7B239;" width="50.122" height="45.996"/>
<rect x="343.04" y="229.298" style="fill:#E09B2D;" width="14.876" height="45.996"/>
<rect x="348.459" y="3.095" style="fill:#F7B239;" width="39.285" height="42.802"/>
<rect x="348.459" y="3.095" style="fill:#E09B2D;" width="15.809" height="42.802"/>
<path style="fill:#2BA5F7;" d="M421.014,479.533V512H125.822v-32.467c0-9.751,7.904-17.655,17.655-17.655h116.021h66.838h77.022
	C413.11,461.878,421.014,469.782,421.014,479.533z"/>
<path style="fill:#2197D8;" d="M164.81,461.878V512h-38.988v-32.467c0-9.751,7.904-17.655,17.655-17.655l0,0h8.828L164.81,461.878
	L164.81,461.878z"/>
<path style="fill:#2BA5F7;" d="M148.875,227.589c16.092,0,29.139,13.047,29.139,29.124c0,16.092-13.047,29.139-29.139,29.139
	s-29.124-13.047-29.124-29.139C119.751,240.635,132.783,227.589,148.875,227.589z"/>
<g>
	<path style="fill:#2197D8;" d="M174.641,256.715c0,14.118-11.52,25.565-25.729,25.565c-1.939,0-3.815-0.211-5.629-0.621
		c11.507-2.548,20.1-12.751,20.1-24.943c0-12.192-8.593-22.383-20.1-24.931c1.813-0.41,3.69-0.621,5.629-0.621
		C163.121,231.162,174.641,242.609,174.641,256.715z"/>
	<rect x="298.262" y="101.811" style="fill:#2197D8;" width="27.963" height="75.066"/>
</g>
<polygon style="fill:#F95428;" points="323.553,176.877 323.553,101.811 323.553,45.897 353.753,45.897 382.45,45.897 
	412.662,45.897 412.662,241.875 393.163,241.875 343.04,241.875 323.553,241.875 "/>
<polygon style="fill:#E54728;" points="323.553,176.877 323.553,101.811 323.553,45.897 333.536,45.897 343.023,45.897 
	353.01,45.897 353.01,241.875 346.565,241.875 329.994,241.875 323.553,241.875 "/>
<path style="fill:#2BA5F7;" d="M393.076,18.642H343.14c-5.148,0-9.321-4.173-9.321-9.321S337.992,0,343.14,0h49.936
	c5.148,0,9.321,4.173,9.321,9.321S398.223,18.642,393.076,18.642z"/>
<path style="fill:#2197D8;" d="M354.946,9.321c0-5.148,4.173-9.321,9.321-9.321H343.14c-5.148,0-9.321,4.173-9.321,9.321
	s4.173,9.321,9.321,9.321h21.128C359.12,18.642,354.946,14.469,354.946,9.321z"/>
<path style="fill:#F95428;" d="M194.35,220.872c7.78,9.868,12.416,22.308,12.416,35.843c0,13.534-4.636,25.987-12.416,35.843
	c-10.614,13.435-27.031,22.047-45.474,22.047c-10.986,0-21.264-3.057-30.014-8.377c-16.716-10.154-27.876-28.522-27.876-49.514
	c0-20.966,11.16-39.347,27.864-49.501h0.012c8.749-5.319,19.027-8.389,30.014-8.389C167.319,198.825,183.737,207.45,194.35,220.872z
	 M174.441,256.715c0-14.106-11.446-25.552-25.565-25.552s-25.552,11.446-25.552,25.552c0,14.118,11.434,25.565,25.552,25.565
	C162.994,282.279,174.441,270.833,174.441,256.715z"/>
</svg>